<svg width="1440" height="121" viewBox="0 0 1440 121" fill="none" xmlns="http://www.w3.org/2000/svg">
<path d="M1302.64 120.021C1378.56 115.226 1425.85 83.0113 1440 67.5035L1440 1.00043L1.04386e-05 1.00031L3.35274e-08 120.021C37.7939 95.8553 136.058 67.5033 226.764 67.5034C340.146 67.5034 437.544 104.608 572.903 104.608C708.262 104.608 826.639 59.797 969.99 59.7971C1113.34 59.7971 1207.74 126.015 1302.64 120.021Z" fill="#BF642E"/>
<path d="M1097.14 105C1270.86 105 1398.1 57.273 1440 33.4093L1440 0.000244141L9.17939e-06 0.000118252L1.66898e-06 85.9092C49.5238 68.4092 198.857 33.4092 400 33.4092C651.428 33.4093 880 105 1097.14 105Z" fill="#922B11"/>
</svg>
