<svg width="1440" height="120" viewBox="0 0 1440 120" fill="none" xmlns="http://www.w3.org/2000/svg">
<path d="M137.357 0.383403C61.436 5.17848 14.1519 37.393 9.24952e-06 52.9008L2.08773e-05 119.404L1440 119.404L1440 0.383011C1402.21 24.5486 1303.94 52.9006 1213.24 52.9006C1099.85 52.9006 1002.46 15.796 867.097 15.796C731.738 15.796 613.361 60.6071 470.01 60.6071C326.66 60.6071 232.258 -5.61045 137.357 0.383403Z" fill="#BF642E"/>
<path d="M342.857 19.9998C169.143 19.9998 41.9048 65.0948 0 87.6423V119.209H1440V38.0378C1390.48 54.5726 1241.14 87.6423 1040 87.6423C788.572 87.6423 560 19.9998 342.857 19.9998Z" fill="#922B11" stroke="#922B11"/>
</svg>
