<svg width="48" height="48" viewBox="0 0 48 48" fill="none" xmlns="http://www.w3.org/2000/svg">
<path d="M3 33.8653C3.10034 33.4079 3.17015 32.9405 3.30684 32.4946C4.31899 29.2039 6.51198 27.0847 9.92944 26.4065C13.2626 25.7455 16.0707 26.8151 18.2913 29.3588C18.3364 29.4104 18.3771 29.4634 18.4222 29.5136C18.4396 29.5337 18.4644 29.5452 18.5153 29.5824C18.905 29.3358 19.3064 29.0835 19.7063 28.8297C20.8435 28.107 21.9778 27.3786 23.1194 26.6631C23.3259 26.5341 23.4146 26.3922 23.4117 26.1441C23.4 24.8092 23.3986 23.4743 23.4117 22.138C23.4146 21.8555 23.3477 21.7465 23.035 21.7164C19.1159 21.3408 15.8482 18.0845 15.4584 14.2132C15.2418 12.0552 15.7566 10.0966 17.0276 8.33158C17.362 7.86702 17.7183 7.75661 18.0455 8.0018C18.3582 8.23551 18.3538 8.5868 18.0324 9.03272C16.1754 11.6065 16.1667 14.9745 18.0106 17.5081C18.0964 17.6271 18.1924 17.739 18.3117 17.891C19.0577 16.5474 20.0408 15.4606 21.3176 14.5931C20.6239 13.6841 20.3709 12.6847 20.6326 11.5835C20.8275 10.7619 21.2827 10.1067 21.9705 9.61056C23.3288 8.63125 25.1902 8.75456 26.4176 9.89446C27.5693 10.9641 28.0085 12.894 26.7215 14.5917C27.9751 15.442 28.9712 16.5317 29.7231 17.8895C30.5869 16.85 31.1162 15.7087 31.3038 14.4325C31.8841 10.4881 29.3886 6.9551 25.4476 6.15789C23.576 5.77936 21.8076 6.112 20.1673 7.08414C20.0495 7.15297 19.9404 7.2347 19.8197 7.29922C19.4765 7.48418 19.142 7.41393 18.9544 7.12429C18.7668 6.83179 18.8323 6.50201 19.158 6.27976C20.208 5.56428 21.367 5.09685 22.6278 4.90472C27.1854 4.21217 31.3809 7.01819 32.425 11.4459C33.5681 16.2951 30.0154 21.2117 24.9924 21.7179C24.7045 21.7465 24.6318 21.8455 24.6332 22.1122C24.6449 23.4743 24.6318 24.8364 24.6478 26.1986C24.6492 26.342 24.751 26.5398 24.8703 26.6173C26.4001 27.608 27.9416 28.5831 29.5093 29.5781C29.6634 29.4046 29.8074 29.2311 29.9645 29.0677C32.3683 26.547 35.2782 25.701 38.687 26.5011C38.8062 26.5298 38.9255 26.5613 39.0404 26.6044C39.4068 26.7406 39.5741 27.0417 39.4694 27.3643C39.3632 27.6969 39.0651 27.8489 38.687 27.7744C38.1126 27.6611 37.5396 27.4847 36.9608 27.4546C33.8386 27.2912 31.4245 28.5486 29.9368 31.2428C28.4477 33.9427 28.7356 36.6125 30.5476 39.116C30.5869 39.1691 30.6378 39.2149 30.7047 39.2838C31.4391 37.9575 32.4163 36.8677 33.7019 36.0017C32.9747 35.0439 32.7304 33.9872 33.0518 32.8387C33.2714 32.0572 33.7411 31.4364 34.413 30.9718C35.7567 30.0427 37.589 30.1803 38.7975 31.2959C39.8518 32.268 40.4626 34.1349 39.1494 35.953C39.6991 36.4534 40.2852 36.9179 40.7825 37.4614C41.2828 38.0091 41.6914 38.6357 42.1524 39.2436C42.9842 38.2385 43.5339 37.0627 43.6983 35.7379C44.0502 32.9218 43.0642 30.6349 40.8189 28.8698C40.4044 28.5443 40.3172 28.226 40.5629 27.9106C40.7898 27.6181 41.1432 27.5908 41.5053 27.859C43.422 29.2813 44.6028 31.1625 44.9184 33.5025C45.5393 38.1109 42.5596 42.1471 37.9337 43.0504C33.3921 43.9366 28.7444 40.7835 27.9402 36.2827C27.5984 34.3714 27.8515 32.5562 28.7429 30.8256C28.7734 30.7668 28.7967 30.7051 28.8403 30.6091C28.2528 30.2348 27.6711 29.8635 27.0894 29.4921C26.1485 28.8928 25.2091 28.2891 24.2609 27.6998C24.1562 27.6353 23.9585 27.5851 23.8727 27.6382C22.3035 28.6175 20.7461 29.614 19.2656 30.556C19.5579 31.5296 19.9171 32.4372 20.096 33.3778C20.9555 37.8743 17.5627 42.4683 12.9615 43.0963C12.7986 43.1178 12.6372 43.1522 12.4744 43.1637C12.0672 43.1953 11.7749 42.9816 11.7312 42.6346C11.6876 42.2891 11.9232 42.0066 12.3318 41.9593C13.6188 41.8102 14.8011 41.3915 15.8613 40.6502C16.0387 40.5269 16.2059 40.3878 16.4531 40.1985C16.0983 39.6637 15.7769 39.1203 15.3974 38.6213C14.7997 37.8356 14.0318 37.2276 13.1768 36.7272C12.5529 36.3616 12.5209 35.9745 13.0735 35.4999C13.8282 34.8503 14.0813 33.8538 13.7177 32.9677C13.3469 32.0615 12.4569 31.5253 11.4317 31.5884C10.4937 31.6457 9.66477 32.3153 9.43936 33.2473C9.2285 34.1177 9.46699 34.8733 10.1476 35.4798C10.7322 36.0003 10.6973 36.363 10.0196 36.7588C8.60463 37.5875 7.54158 38.7332 6.82901 40.2387C7.62738 40.9413 8.55373 41.4044 9.57024 41.7069C9.68804 41.7414 9.80874 41.7643 9.92653 41.7987C10.3541 41.9191 10.5504 42.2059 10.4573 42.5701C10.3686 42.9142 10.0312 43.0849 9.60369 42.9687C9.17033 42.8497 8.72969 42.735 8.32105 42.5558C5.3326 41.2438 3.57442 38.9898 3.07271 35.7881C3.06108 35.7121 3.02472 35.639 3 35.5644V33.8653ZM17.3141 39.2608C19.3718 37.0269 19.8735 32.6609 16.904 29.6484C13.9402 26.6416 9.12234 26.6918 6.21241 29.7631C3.29666 32.8415 3.9438 37.1703 5.88666 39.2321C6.3302 38.6471 6.7403 38.0205 7.2391 37.4728C7.73645 36.9265 8.32396 36.4605 8.87657 35.9544C7.77571 34.0961 7.93423 32.4243 9.34629 31.1984C10.5809 30.1259 12.4656 30.0771 13.7701 31.0837C14.4303 31.5927 14.8608 32.2537 15.0382 33.0581C15.2767 34.1363 15.0004 35.1113 14.3314 35.9974C15.601 36.862 16.5884 37.9431 17.3126 39.2608H17.3141ZM19.2424 18.8115C21.8251 21.0669 25.9319 21.1372 28.5815 19.0151C28.7764 18.8602 28.7967 18.7355 28.6746 18.5462C28.4259 18.1605 28.2048 17.7547 27.9314 17.3877C27.293 16.5288 26.4874 15.8506 25.5538 15.3144C24.9677 14.9774 24.9284 14.5716 25.4272 14.1343C25.4781 14.0899 25.5305 14.0454 25.5799 13.9995C26.4976 13.1235 26.5092 11.6925 25.609 10.8121C24.7089 9.93174 23.243 9.95898 22.3763 10.8709C21.5095 11.7828 21.575 13.2167 22.5217 14.0569C23.147 14.6132 23.1106 14.9473 22.3821 15.3789C20.986 16.2062 19.9375 17.3389 19.2438 18.8115H19.2424ZM41.1795 40.2C41.1185 40.0767 41.0588 39.9433 40.989 39.8143C40.275 38.498 39.2512 37.4757 37.9511 36.7186C37.3491 36.3673 37.3127 35.9687 37.8392 35.5156C38.8513 34.6467 38.9473 33.2158 38.0573 32.2809C37.1615 31.3389 35.6723 31.3346 34.7693 32.2709C33.8749 33.2 33.9622 34.6324 34.9685 35.5056C35.5138 35.9788 35.4746 36.3659 34.842 36.7344C34.0232 37.2119 33.283 37.7883 32.7042 38.5339C32.2956 39.0601 31.951 39.6336 31.5874 40.1727C34.4479 42.6518 38.7175 42.4353 41.1781 40.1985L41.1795 40.2Z" fill="#922B11"/>
</svg>
