<svg width="1440" height="122" viewBox="0 0 1440 122" fill="none" xmlns="http://www.w3.org/2000/svg">
<path d="M1302.64 121.02C1378.56 116.225 1425.85 84.011 1440 68.5031L1440 2.00007L1.04386e-05 1.99994L3.35274e-08 121.021C37.7939 96.8549 136.058 68.503 226.764 68.503C340.146 68.503 437.544 105.608 572.903 105.608C708.262 105.608 826.639 60.7967 969.99 60.7967C1113.34 60.7967 1207.74 127.014 1302.64 121.02Z" fill="#6E804A"/>
<path d="M1097.14 105C1270.86 105 1398.1 57.2727 1440 33.4091L1440 0L9.17939e-06 -0.000125889L1.66898e-06 85.909C49.5238 68.409 198.857 33.409 400 33.409C651.428 33.409 880 105 1097.14 105Z" fill="#223513"/>
</svg>
