<svg width="1440" height="254" viewBox="0 0 1440 254" fill="none" xmlns="http://www.w3.org/2000/svg">
<rect y="119" width="1440" height="135" fill="#223513"/>
<path d="M137.357 0.383892C61.436 5.17897 14.1519 37.3935 9.24952e-06 52.9013L2.08773e-05 119.404L1440 119.404L1440 0.3835C1402.21 24.5491 1303.94 52.9011 1213.24 52.9011C1099.85 52.9011 1002.46 15.7965 867.097 15.7965C731.738 15.7965 613.361 60.6076 470.01 60.6076C326.66 60.6076 232.258 -5.60996 137.357 0.383892Z" fill="#6E804A"/>
<path d="M342.857 16C169.143 16 41.9048 63.7273 0 87.5909V121H1440V35.0909C1390.48 52.5909 1241.14 87.5909 1040 87.5909C788.572 87.5909 560 16 342.857 16Z" fill="#223513"/>
</svg>
