<svg width="48" height="48" viewBox="0 0 48 48" fill="none" xmlns="http://www.w3.org/2000/svg">
<path d="M41.6156 24.6184C36.5328 24.9026 32.9137 27.3793 30.7297 31.9914C30.643 32.1742 30.5677 32.3627 30.4427 32.6498C30.3191 32.3584 30.2452 32.1671 30.1571 31.9828C29.458 30.5131 28.6139 29.2604 27.6235 28.2263L27.6434 28.2063L16.9054 17.414L22.8648 11.4236C25.7777 8.49559 30.518 8.49559 33.4309 11.4236C36.3439 14.3517 36.3439 19.1165 33.4309 22.0446L28.6225 26.878L29.6271 27.8878L34.4355 23.0544C37.9026 19.5693 37.9026 13.8989 34.4355 10.4138C30.9684 6.92873 25.3273 6.92873 21.8602 10.4138L8.00032 24.3456C4.53322 27.8307 4.53322 33.5011 8.00032 36.9862C9.73387 38.7287 12.0116 39.6 14.288 39.6C16.5643 39.6 18.8421 38.7287 20.5757 36.9862L21.2563 36.2692L20.2275 35.2836L19.5654 35.9821C16.6524 38.9044 11.9164 38.903 9.00493 35.9764C6.09199 33.0483 6.09199 28.2835 9.00493 25.3554L15.9008 18.4238L22.6275 25.1854C21.5746 24.8698 20.4378 24.6798 19.2172 24.6184C18.5224 24.5827 18.2666 24.8641 18.295 25.5697C18.3149 26.0639 18.349 26.5581 18.413 27.048C19.1519 32.7584 24.0811 37.2861 29.8317 37.5447C36.7019 37.8532 42.4184 32.5084 42.5989 25.6068C42.6187 24.8427 42.3829 24.5756 41.617 24.6184H41.6156ZM19.7913 26.1353C24.6793 26.2453 29.4807 30.7102 29.6498 36.0706C23.858 35.675 19.8993 30.6902 19.7913 26.1353ZM31.2668 36.0635C31.2199 31.8657 35.0707 26.4881 41.104 26.101C40.9548 30.883 36.8483 35.7164 31.2668 36.0635Z" fill="#6B794C"/>
</svg>
