<svg width="80" height="20" viewBox="0 0 80 20" fill="none" xmlns="http://www.w3.org/2000/svg">
<g opacity="0.5" clip-path="url(#clip0_229_160)">
<path d="M2.80459 14.8605C2.13398 14.8605 1.55764 14.2521 1.39267 13.3417L0.0450119 5.81673C-0.169241 4.67298 0.344968 3.56048 1.17199 3.33965L13.4573 0.0396478C13.6445 -0.00952151 13.8416 -0.0106065 14.0294 0.0365007C14.2172 0.0836079 14.3891 0.177296 14.5285 0.3084C15.0513 0.762566 15.3063 1.63757 15.1713 2.4834L13.6137 11.8313C13.4723 12.6647 12.9816 13.273 12.3624 13.3709L2.98457 14.848C2.92497 14.8564 2.86482 14.8606 2.80459 14.8605ZM13.7486 0.718817C13.7168 0.719267 13.6852 0.723464 13.6544 0.731316L1.3691 4.03132C0.974872 4.13757 0.627783 4.88548 0.773475 5.69798L2.12113 13.2251C2.22397 13.7897 2.54963 14.1917 2.86244 14.1438L12.2403 12.6667C12.4846 12.6292 12.7845 12.2917 12.8831 11.723L14.4407 2.37506C14.5542 1.70006 14.325 1.09798 14.0422 0.850068C13.9657 0.770754 13.8604 0.723652 13.7486 0.718817Z" fill="white"/>
<path d="M47.0821 8.3585V12.6731H45.6424V8.621C45.6424 7.29808 45.2738 6.65017 43.8512 6.65017C42.1115 6.65017 41.0659 7.86266 41.0659 9.65433V12.6731H39.6261V8.621C39.6261 7.29808 39.2576 6.65017 37.8328 6.65017C36.0952 6.65017 35.0583 7.86266 35.0583 9.65433V12.6731H33.6185V5.82308H35.0583V6.98766L34.829 7.76058H35.2339C35.5853 6.51058 36.498 5.67725 38.3599 5.67725C39.9411 5.67725 40.7852 6.53141 40.9781 7.76058H41.2416C41.593 6.51058 42.5057 5.67725 44.3697 5.67725C46.2037 5.68558 47.0821 6.82933 47.0821 8.3585Z" fill="white"/>
<path d="M57.6641 6.63539C57.6641 5.98747 58.0498 5.67081 58.8768 5.69789L63.7253 5.82289V6.77914L59.1039 6.65622V12.6646H57.6641V6.63539Z" fill="white"/>
<path d="M32.0973 7.68314V6.48314C32.0973 6.29398 32.0201 6.11254 31.8828 5.97859C31.7454 5.84463 31.559 5.76911 31.3645 5.76855H25.7939C25.5325 5.76855 25.2819 5.86952 25.097 6.04925C24.9122 6.22897 24.8084 6.47272 24.8084 6.72689V10.554C24.8084 11.1126 25.0366 11.6483 25.4428 12.0433C25.849 12.4383 26.4 12.6602 26.9745 12.6602H32.0973V11.704H27.9579C26.186 11.704 25.7918 11.5123 25.7918 9.59772H30.1219C30.381 9.59882 30.6379 9.55009 30.8777 9.45434C31.1174 9.35859 31.3353 9.21771 31.5189 9.03978C31.7025 8.86186 31.8481 8.65041 31.9474 8.41759C32.0466 8.18477 32.0975 7.93517 32.0973 7.68314ZM26.7816 6.72689H31.1138C31.1138 8.64147 31.1138 8.64147 29.1449 8.64147H25.7918V7.68314C25.7918 6.91856 25.7918 6.72689 26.7752 6.72689H26.7816Z" fill="white"/>
<path d="M55.9137 7.68326V6.59993C55.9137 6.37892 55.8234 6.16696 55.6627 6.01068C55.5019 5.8544 55.284 5.7666 55.0567 5.7666H49.6125C49.4832 5.7666 49.3551 5.7914 49.2357 5.83959C49.1162 5.88778 49.0077 5.9584 48.9163 6.04741C48.825 6.13643 48.7526 6.24209 48.7033 6.35835C48.654 6.47461 48.6288 6.59918 48.6291 6.72493V10.552C48.6288 10.8287 48.6846 11.1027 48.7934 11.3584C48.9021 11.614 49.0617 11.8463 49.2629 12.042C49.4641 12.2376 49.703 12.3927 49.9659 12.4985C50.2288 12.6043 50.5106 12.6585 50.7952 12.6583H55.9137V11.702H51.7786C50.0067 11.702 49.6125 11.5103 49.6125 9.59576H53.9511C54.4718 9.59411 54.9707 9.39195 55.3385 9.03353C55.7063 8.6751 55.9131 8.1896 55.9137 7.68326ZM50.5981 6.72702H54.9281C54.9281 8.6416 54.9281 8.6416 52.9591 8.6416H49.6125V7.68326C49.6125 6.91868 49.6125 6.72702 50.5981 6.72702Z" fill="white"/>
<path d="M79.9979 7.68314V6.49981C79.9979 6.30623 79.9189 6.12054 79.7784 5.98347C79.6378 5.84639 79.4471 5.76911 79.248 5.76855H73.6988C73.4374 5.76855 73.1867 5.86952 73.0019 6.04925C72.8171 6.22897 72.7133 6.47272 72.7133 6.72689V10.554C72.7133 11.1126 72.9415 11.6483 73.3477 12.0433C73.7539 12.4383 74.3049 12.6602 74.8794 12.6602H79.9979V11.704H75.8649C74.0931 11.704 73.6988 11.5123 73.6988 9.59772H78.0289C78.2875 9.598 78.5437 9.54866 78.7827 9.45254C79.0217 9.35642 79.2389 9.21541 79.4218 9.03757C79.6047 8.85973 79.7497 8.64856 79.8486 8.41615C79.9474 8.18373 79.9981 7.93464 79.9979 7.68314ZM74.6822 6.72689H79.0187C79.0187 8.64147 79.0187 8.64147 77.0497 8.64147H73.6988V7.68314C73.6988 6.91856 73.6988 6.72689 74.6822 6.72689Z" fill="white"/>
<path d="M71.2606 13.302C71.2606 15.2104 69.7223 16.452 67.3441 16.452C65.5422 16.452 64.5973 15.7771 64.2117 15.4833L65.0001 14.65C65.4715 15.0104 66.2235 15.3291 67.5005 15.3291C69.2316 15.3291 69.9322 14.5916 69.9322 13.2958V12.1395H69.8615C69.5637 12.3479 68.7603 12.7145 67.5348 12.7145C65.5765 12.7145 63.916 11.7791 63.916 9.31038C63.916 6.98955 65.4029 5.62288 68.5503 5.62288C69.4692 5.59512 70.3861 5.72198 71.2606 5.99788V13.302ZM68.3575 6.53746C66.5213 6.53746 65.298 7.26247 65.298 9.1833C65.298 11.2666 66.5556 11.8125 67.9033 11.8125C68.6553 11.8125 69.4587 11.5583 69.9151 11.1062V6.73121C69.4083 6.59377 68.8836 6.52851 68.3575 6.53746Z" fill="white"/>
<path d="M7.8631 19.9998C7.45196 19.9933 7.05825 19.8372 6.75969 19.5623C5.98195 18.8831 5.60272 17.5644 5.81698 16.281L7.01465 9.09146C7.2289 7.84146 7.9338 6.94979 8.82938 6.79979L17.2045 5.48104C18.2651 5.31437 19.2249 6.25188 19.4863 7.71229L20.5019 13.3769C20.8061 15.0706 20.0541 16.7706 18.8586 17.0915L8.27018 19.9456C8.13773 19.982 8.00072 20.0002 7.8631 19.9998ZM17.4424 6.19146C17.4021 6.19182 17.362 6.19531 17.3224 6.20188L8.95793 7.52062C8.40087 7.60812 7.90595 8.30187 7.75597 9.20604L6.55615 16.3956C6.35475 17.604 6.78326 18.606 7.26533 19.0269C7.36884 19.1318 7.49916 19.2082 7.64297 19.2481C7.78677 19.288 7.9389 19.29 8.08378 19.254L18.6722 16.4102C19.4863 16.1915 20.0177 14.8081 19.7841 13.5102L18.7686 7.84771C18.5843 6.87479 18.0316 6.19146 17.4424 6.19146Z" fill="white"/>
</g>
<defs>
<clipPath id="clip0_229_160">
<rect width="80" height="20" fill="white"/>
</clipPath>
</defs>
</svg>
