<svg width="123" height="22" viewBox="0 0 123 22" fill="none" xmlns="http://www.w3.org/2000/svg">
<g clip-path="url(#clip0_229_240)">
<path d="M34.6778 11.3676C34.6031 11.8921 34.4797 12.3902 34.2815 12.8488C34.6616 12.5849 35.032 12.3078 35.3991 12.0175C35.4283 11.9416 35.4608 11.8723 35.4868 11.7931C35.7175 11.0344 35.7792 10.1701 35.6005 9.37839C35.2399 9.30911 34.8468 9.22994 34.4212 9.14087C34.6876 9.79074 34.8013 10.5198 34.6778 11.3643V11.3676Z" fill="white"/>
<path d="M13.2162 6.02358C14.1096 4.5358 15.5196 3.79356 17.1765 3.53954C15.6171 3.32512 14.363 3.63521 13.4468 4.36755C13.135 4.65126 12.8491 4.96465 12.5924 5.30443C11.8062 6.48211 11.4813 8.16782 11.6535 10.2032C11.6795 10.5232 11.7185 10.8333 11.764 11.1302C11.9199 10.2164 12.1311 9.30593 12.3033 8.39545C12.4592 7.56084 12.7841 6.75262 13.2162 6.02687V6.02358Z" fill="white"/>
<path d="M36.195 11.3678C36.5524 11.0577 36.9 10.7344 37.2379 10.4012C37.2411 10.1538 37.2249 9.90967 37.1859 9.66556C36.9292 9.62267 36.6011 9.56659 36.2145 9.49731C36.2567 9.71504 36.286 9.94266 36.2925 10.1835C36.3022 10.5793 36.2697 10.9785 36.1983 11.3678H36.195Z" fill="white"/>
<path d="M26.5168 12.6773C25.7468 13.215 24.7982 13.4888 23.869 13.4987C23.19 13.5053 22.1894 13.4723 21.7021 12.9148C21.1595 12.2947 21.4811 11.4864 22.0497 11.0312C22.4265 10.7277 22.9918 10.5595 23.294 10.1768C23.6838 9.68527 23.2192 9.21024 22.8034 8.93643C22.2836 8.59335 21.7345 8.47789 21.127 8.61315C20.6689 8.71541 20.2433 8.91664 19.7625 8.83747C19.1907 8.7451 18.7359 8.27337 18.1446 8.28656C17.5078 8.30305 16.9198 8.72531 16.5397 9.21684C15.7762 10.2197 16.0004 11.9054 16.1433 13.093C16.2928 14.3432 16.6209 15.6958 17.5891 16.5535C18.4792 17.3419 19.5318 17.7246 20.6397 17.8994C21.9587 17.7773 23.5799 17.487 25.344 16.9889C24.3563 17.0648 23.3817 17.1341 22.3681 17.0417C20.3668 16.8603 18.3818 16.4347 17.5403 14.3696C16.7963 12.5421 16.5429 10.0053 18.3265 8.7418C18.6384 8.52078 18.9341 9.0387 18.6222 9.25972C17.5501 10.0185 17.4688 11.2621 17.6573 12.4728C17.8002 13.4031 18.0309 14.3927 18.6579 15.1185C19.1972 15.742 19.9574 16.0553 20.7437 16.2203C21.936 16.471 23.19 16.5502 24.4051 16.5073C25.4349 16.471 26.4421 16.2995 27.4752 16.2896H27.5207C29.314 15.643 31.1723 14.7919 32.9494 13.7099C33.0274 13.6439 33.1021 13.5779 33.1736 13.5053C33.8851 12.7928 34.1483 11.5788 34.1385 10.5925C34.132 9.99206 33.9793 9.46755 33.7292 8.98921C33.3068 8.89685 32.8617 8.79458 32.3971 8.68242C32.6603 8.96282 32.891 9.26962 33.0339 9.62919C33.2938 10.2725 33.3393 11.0345 33.1996 11.7141C33.0502 12.4497 32.5433 12.961 32.017 13.4526C31.5882 13.8517 31.2503 14.4422 30.5811 14.2872C30.1197 14.1816 29.8533 13.8616 29.3303 13.9606C28.9664 14.0331 28.6285 14.1585 28.2517 14.1849C26.4096 14.3136 24.5545 14.7028 22.7027 14.6698C21.4064 14.6467 20.1719 13.9309 19.9087 12.5421C19.6845 11.3512 20.7729 10.6617 21.4714 9.8766C21.1043 9.74135 20.5065 9.83702 20.2173 9.91619C19.5383 10.1042 19.22 10.6485 19.0965 11.3149C18.8236 12.8126 19.5871 14.3828 21.0685 14.815C21.7833 15.0228 22.563 15.0129 23.3005 15.0789C24.1387 15.1515 24.9801 15.1943 25.8215 15.1449C26.3868 15.1119 26.9391 15.0822 27.5044 15.0723C27.982 15.0624 28.5993 15.1086 29.0119 14.8282C29.327 14.6104 29.6227 15.1284 29.3108 15.3461C28.7715 15.7189 27.9593 15.6661 27.3387 15.676C26.4096 15.6892 25.4869 15.7881 24.5545 15.7584C23.5474 15.7255 22.5078 15.6661 21.5104 15.5176C20.6494 15.389 19.8372 15.0327 19.2752 14.3366C18.3915 13.2447 18.0991 11.3083 18.9406 10.1075C19.3044 9.58631 19.8762 9.33889 20.487 9.26962C20.9776 9.21354 21.767 9.15746 22.1179 9.6028C22.1926 9.69847 22.2479 9.85351 22.1634 9.96567C21.7703 10.4836 21.2635 10.8795 20.8509 11.371C20.2856 12.0472 20.4448 12.8423 21.049 13.469C21.6501 14.0925 22.5045 14.1024 23.3037 14.0562C24.1484 14.0068 24.9931 13.9375 25.8313 13.8286C26.7929 13.7033 27.8553 13.7231 28.791 13.4888C29.327 13.3569 29.7818 13.248 30.3049 13.4987C30.633 13.6538 30.8312 13.7396 31.1593 13.4789C31.2893 13.3767 31.4063 13.2117 31.5297 13.093C31.7571 12.872 32.0008 12.6674 32.2055 12.4233C32.7318 11.7866 32.7967 10.8696 32.5693 10.0877C32.3614 9.37518 31.7766 8.86056 31.2113 8.38882C30.7922 8.28326 30.3634 8.1678 29.9215 8.04574C29.9865 8.10512 30.045 8.1645 30.0937 8.21728C30.3244 8.4614 30.5031 8.7484 30.7273 8.99911C30.9287 9.22343 31.1626 9.40817 31.3445 9.65228C32.1307 10.7013 31.6824 12.0373 30.9319 12.9544C30.6883 13.2513 30.2757 12.8258 30.5161 12.5322C31.0002 11.9384 31.3478 11.15 31.0749 10.378C30.8897 9.85681 30.3309 9.45765 29.9963 9.0288C29.8436 8.83087 29.5999 8.64943 29.4667 8.4482C29.4602 8.50758 29.4537 8.56696 29.4537 8.62634C29.444 8.93313 29.4765 9.23333 29.4537 9.54012C29.3628 10.7475 29.0736 12.8621 27.6799 13.2216C27.3127 13.3173 27.1568 12.74 27.5239 12.6443C28.5376 12.3837 28.7455 10.6353 28.8429 9.76774C28.8982 9.28611 28.6415 8.12822 29.1483 7.83132C28.8169 7.73565 28.4823 7.63669 28.1444 7.53442C28.4206 9.45765 28.2127 11.4831 26.5103 12.6707L26.5168 12.6773ZM29.5284 12.0308C29.8403 11.7668 29.9898 11.2687 30.0125 10.8234C29.9605 10.7607 29.9313 10.6749 29.9508 10.576C29.9735 10.4506 30.006 10.3747 30.0937 10.2758C30.2789 10.0613 30.5713 10.2527 30.5973 10.4869C30.6623 11.1236 30.4511 12.0307 29.9443 12.453C29.6551 12.6971 29.236 12.2749 29.5284 12.0308Z" fill="white"/>
<path d="M16.4162 16.072C15.812 15.0691 15.604 13.7925 15.5131 12.6379C15.4286 11.6086 15.2889 10.3056 15.7632 9.34892C16.1726 8.53081 16.9815 7.84465 17.8912 7.71599C18.3525 7.65002 18.7359 7.76218 19.1517 7.96011C19.5124 8.13165 19.782 8.28339 20.1946 8.23721C20.4968 8.20422 20.7794 8.07887 21.075 8.01289C21.9035 7.82486 22.7644 8.09866 23.4109 8.64957C23.9178 9.08172 24.2621 9.75798 23.882 10.3914C23.5376 10.9621 21.3999 11.6845 22.1796 12.529C22.498 12.8721 23.19 12.8754 23.6221 12.8919C24.0964 12.9117 24.5675 12.8589 25.0256 12.7269C26.0652 12.4267 27.0009 11.7043 27.4135 10.6685C27.7903 9.72169 27.7611 8.37246 27.4882 7.33333C27.1146 7.21457 26.7345 7.09251 26.3544 6.96386C27.0464 8.07557 27.4947 9.405 26.5688 10.5365C26.3251 10.8334 25.9125 10.4079 26.1529 10.1143C26.9424 9.15099 26.3219 7.75888 25.5194 6.67686C24.8762 6.44924 24.2296 6.20842 23.5831 5.95111C23.5214 5.9973 23.4402 6.02039 23.3427 5.9907C22.5987 5.77627 21.884 5.39031 21.1075 5.29134C20.7047 5.23856 20.2856 5.25505 19.8795 5.27155C18.6742 5.31773 17.3584 5.43319 16.2538 5.96101C15.9127 6.12265 15.6138 5.60803 15.9549 5.44309C17.1147 4.89218 18.4533 4.74043 19.7203 4.68106C20.0289 4.66786 20.3408 4.65796 20.6495 4.66456H20.6397C20.0972 4.39735 19.5806 4.18293 19.0835 4.01139C17.5176 3.9883 15.7405 4.16644 14.5417 5.27155C13.2519 6.46243 12.9725 8.15144 12.6314 9.78767C12.404 10.8829 12.196 11.9451 12.2025 13.0172C12.7646 14.6996 13.6872 15.9037 14.8471 16.7053C14.6229 16.3755 14.4702 15.9961 14.2558 15.6563C14.0739 15.3693 13.8627 15.145 13.7652 14.8184C13.4891 13.9145 13.3624 12.8952 13.3884 11.9517C13.4078 11.1897 13.5183 10.3947 13.6775 9.64912C13.7522 9.28954 13.9309 9.00584 14.0381 8.66276C14.1258 8.37906 14.1973 8.13165 14.3857 7.89413C14.7464 7.43889 15.2889 7.23436 15.8087 7.03313C16.6339 6.71644 17.4591 6.51521 18.3201 6.31068C19.1485 6.11275 19.9477 6.15564 20.7859 6.2744C21.3707 6.36017 21.936 6.5614 22.5208 6.63397C22.9204 6.68675 23.333 6.66366 23.7163 6.80551C25.1523 7.33333 25.383 8.80791 25.4187 10.1571C25.4349 10.7971 25.4999 11.2688 24.9444 11.6911C24.496 12.0342 23.8658 12.3212 23.2972 12.3509C22.9171 12.3707 22.9204 11.7736 23.2972 11.7538C23.973 11.7175 24.8924 11.2491 24.8534 10.4969C24.8144 9.73489 24.8859 8.94646 24.5058 8.25041C24.025 7.37291 23.2875 7.33992 22.4071 7.22117C21.3999 7.08261 20.4545 6.72304 19.4182 6.74943C18.6482 6.76922 17.8262 7.02653 17.079 7.20797C16.5494 7.33663 15.9712 7.57084 15.4773 7.80836C15.1817 7.95021 14.8958 8.13165 14.7334 8.43514C14.6002 8.68255 14.5807 8.96955 14.4605 9.22357C14.2428 9.6887 14.1843 10.1802 14.1063 10.6916C13.9569 11.6845 13.9342 12.6478 14.1128 13.6407C14.2493 14.3995 14.4897 14.9207 14.8893 15.5573C15.2792 16.1808 15.6788 16.7911 16.1044 17.3849C16.9068 17.7115 17.7807 17.8962 18.7034 17.9523C18.6612 17.9325 18.6189 17.9193 18.58 17.8995C17.7255 17.4971 16.9133 16.9033 16.4162 16.0753V16.072Z" fill="white"/>
<path d="M51.5554 17.365V2.27612C51.5554 1.7846 51.3474 1.45471 50.9283 1.28647C51.2955 0.761955 51.7503 0.498047 52.2928 0.498047C52.8354 0.498047 53.2837 0.6333 53.6444 0.903805C54.0017 1.17431 54.3656 1.60646 54.7327 2.20025L63.3128 15.9663V2.27612C63.3128 1.80109 63.1049 1.47121 62.689 1.28647C63.0237 0.761955 63.4655 0.498047 64.0146 0.498047C64.947 0.498047 65.4148 1.08194 65.4148 2.24973V17.3387C65.4148 17.8137 65.6065 18.1601 65.9898 18.3811C65.6715 18.8891 65.2459 19.1431 64.7131 19.1431C64.1802 19.1431 63.7092 18.9749 63.2998 18.6351C62.8905 18.2953 62.4454 17.7543 61.9613 17.0088L53.6314 3.90246V17.3387C53.6314 17.8137 53.8393 18.1436 54.2551 18.3283C53.9205 18.8693 53.4884 19.1398 52.9556 19.1398C52.0199 19.1398 51.5554 18.5493 51.5554 17.3617V17.365Z" fill="white"/>
<path d="M83.1013 18.4834C82.8349 18.9221 82.4451 19.1431 81.9382 19.1431C81.4314 19.1431 81.0513 19.0343 80.8012 18.8132C80.551 18.5922 80.3333 18.1964 80.1514 17.6191L79.1248 14.6204H71.9936L70.9443 17.3881C70.5122 18.5559 69.9599 19.1398 69.2939 19.1398C68.7253 19.1398 68.3355 18.8528 68.1178 18.2755C68.5012 18.1238 68.8 17.7246 69.0177 17.0813L74.8948 2.02211C74.7096 1.56357 74.5017 1.22709 74.271 1.00607C74.6544 0.666288 75.0508 0.498047 75.4601 0.498047C75.8695 0.498047 76.1846 0.626702 76.412 0.880713C76.6362 1.13472 76.8506 1.54048 77.0488 2.10129L82.1527 17.1902C82.3866 17.8863 82.7017 18.3151 83.1046 18.4867L83.1013 18.4834ZM72.5687 13.0732H78.5985L75.798 4.15647L72.5719 13.0732H72.5687Z" fill="white"/>
<path d="M87.4515 7.63672V15.6892C87.4515 16.316 87.5717 16.7646 87.8154 17.0351C88.0558 17.3056 88.4521 17.4409 89.0044 17.4409C90.0376 17.4409 91.0155 16.9922 91.9316 16.095C92.2143 16.2467 92.3572 16.4941 92.3572 16.8306C92.3572 17.4079 91.9901 17.9357 91.2559 18.4173C90.5216 18.899 89.6217 19.1398 88.5529 19.1398C86.4184 19.1398 85.3495 18.0149 85.3495 15.7618V7.63672C83.998 7.58723 83.3223 7.25735 83.3223 6.64706C83.3223 6.32707 83.423 6.07966 83.6212 5.91142C84.2059 5.99719 84.6543 6.03678 84.9727 6.03678H85.3495V3.9783C85.3495 3.50326 85.1416 3.16678 84.7258 2.96225C85.0604 2.43774 85.4925 2.17383 86.0253 2.17383C86.9772 2.17383 87.4515 2.76762 87.4515 3.95191V6.03348H91.6555C91.7204 6.15224 91.7562 6.29738 91.7562 6.46563C91.7562 7.24415 90.4372 7.63342 87.8024 7.63342H87.4515V7.63672Z" fill="white"/>
<path d="M95.6905 1.75171C96.0608 1.75171 96.3662 1.86057 96.6066 2.075C96.847 2.28942 96.9672 2.58632 96.9672 2.96239C96.9672 3.33845 96.8113 3.67823 96.4962 3.98173C96.1843 4.28522 95.8302 4.43697 95.4371 4.43697C95.0439 4.43697 94.7223 4.31821 94.4754 4.08069C94.2285 3.84318 94.105 3.53309 94.105 3.15042C94.105 2.76775 94.2772 2.43787 94.6183 2.16406C94.9595 1.89026 95.3168 1.75501 95.6872 1.75501L95.6905 1.75171ZM96.8828 7.56098V17.3388C96.8828 17.8303 97.0907 18.1602 97.5098 18.3284C97.1589 18.8694 96.7268 19.1399 96.2103 19.1399C95.2746 19.1399 94.81 18.5494 94.81 17.3618V7.61046C94.81 7.11893 94.6021 6.78245 94.1863 6.59441C94.5014 6.0534 94.9367 5.7829 95.4858 5.7829C96.4182 5.7829 96.886 6.37669 96.886 7.56098H96.8828Z" fill="white"/>
<path d="M108.64 8.29656C108.79 7.8908 108.864 7.50814 108.864 7.15516C108.864 6.80218 108.747 6.49539 108.514 6.24138C108.897 5.93789 109.267 5.78284 109.628 5.78284C109.988 5.78284 110.281 5.9016 110.515 6.13912C110.749 6.37663 110.866 6.67683 110.866 7.0397C110.866 7.40257 110.765 7.82483 110.567 8.29656L106.99 17.3387C106.74 17.9985 106.48 18.4603 106.213 18.7242C105.947 18.9848 105.577 19.1168 105.099 19.1168C104.621 19.1168 104.245 18.9815 103.962 18.711C103.679 18.4405 103.429 17.982 103.211 17.3387L100.034 7.91389C99.8165 7.3201 99.4753 7.00671 99.0075 6.97372C99.0238 6.61745 99.1667 6.33045 99.4331 6.10943C99.6995 5.8884 100.008 5.77954 100.359 5.77954C101.194 5.77954 101.785 6.35684 102.136 7.50814L105.138 17.6422L108.64 8.29326V8.29656Z" fill="white"/>
<path d="M121.775 9.87341V16.6294C121.775 17.5267 122.185 18.0348 123 18.1535C122.682 18.8133 122.159 19.1432 121.424 19.1432C120.375 19.1432 119.8 18.457 119.699 17.0847C118.731 18.457 117.431 19.1432 115.797 19.1432C114.764 19.1432 113.913 18.8562 113.247 18.2789C112.581 17.7049 112.246 16.9065 112.246 15.8905C112.246 14.6369 112.867 13.6242 114.111 12.8556C115.352 12.0836 117.217 11.6647 119.702 11.5987V10.0746C119.702 9.02561 119.517 8.25038 119.153 7.74895C118.786 7.25083 118.208 7.00011 117.415 7.00011C116.623 7.00011 116.028 7.16506 115.625 7.49494C115.226 7.82482 115.024 8.19759 115.024 8.61325C115.024 9.0289 115.141 9.36209 115.375 9.6161C115.024 9.8866 114.638 10.0219 114.212 10.0219C113.786 10.0219 113.439 9.9031 113.172 9.66558C112.906 9.42806 112.773 9.09158 112.773 8.64954C112.773 7.85451 113.224 7.17495 114.124 6.61745C115.024 6.05994 116.135 5.77954 117.451 5.77954C118.767 5.77954 119.819 6.13912 120.602 6.85826C121.385 7.57741 121.778 8.58026 121.778 9.86681L121.775 9.87341ZM114.495 15.6662C114.495 16.8868 115.148 17.4937 116.457 17.4937C117.766 17.4937 118.845 16.9098 119.696 15.7421V12.7203C117.929 12.8226 116.619 13.1393 115.768 13.6737C114.917 14.2081 114.491 14.8712 114.491 15.6662H114.495Z" fill="white"/>
<path d="M41.3866 8.09171C41.2989 8.07852 32.4914 6.85794 21.9555 1.75133C16.374 -0.957023 13.0732 -0.0267483 11.2896 1.22681C9.62298 2.3979 8.58011 4.33762 8.22599 6.84145C4.26569 7.78492 1.02013 10.5691 0 15.1479C1.55943 11.5192 4.52559 9.07477 8.09929 8.30614C8.07655 8.9659 8.09279 9.65206 8.15127 10.3679C8.77829 17.754 12.9952 21.993 19.717 21.9963H19.7235C25.0061 21.9963 33.6187 18.78 41.9649 9.74773L43.2644 8.34242L41.3801 8.09171H41.3866ZM12.4007 2.85314C13.2194 2.27585 14.2525 1.98885 15.4578 1.98885C17.0758 1.98885 18.9991 2.50676 21.1173 3.536C29.1386 7.42534 36.0748 9.10116 39.2684 9.73124C39.0507 9.94896 38.833 10.1634 38.6186 10.3712C34.4699 11.9777 30.2692 11.8623 25.6656 10.358C21.897 9.21332 18.2876 7.51441 14.35 6.78207C12.9725 6.50497 11.5918 6.4192 10.2597 6.52146C10.5976 4.87204 11.3221 3.61188 12.404 2.85314H12.4007ZM19.7268 20.017H19.7203C15.708 20.017 10.7828 18.3082 10.0941 10.1964C10.0291 9.43764 10.0226 8.72509 10.0616 8.05542C10.4579 8.03893 10.8575 8.03563 11.2636 8.05872C14.1388 8.13789 16.8548 9.04838 19.6066 9.97865C25.8768 12.2647 31.6629 13.8548 37.2996 11.5951C30.4414 17.7408 23.7456 20.0137 19.73 20.0137L19.7268 20.017Z" fill="white"/>
</g>
<defs>
<clipPath id="clip0_229_240">
<rect width="123" height="22" fill="white"/>
</clipPath>
</defs>
</svg>
