<svg width="48" height="48" viewBox="0 0 48 48" fill="none" xmlns="http://www.w3.org/2000/svg">
<path d="M33.3932 24H14.6068C13.8319 24 13.2 23.4621 13.2 22.8C13.2 22.1379 13.8306 21.6 14.6068 21.6H33.3932C34.1681 21.6 34.8 22.1379 34.8 22.8C34.8 23.4621 34.1694 24 33.3932 24ZM14.6055 22.5605C14.4534 22.5605 14.3247 22.6702 14.3247 22.8C14.3247 22.9298 14.4534 23.0396 14.6055 23.0396H33.3932C33.5453 23.0396 33.674 22.9298 33.674 22.8C33.674 22.6702 33.5453 22.5605 33.3932 22.5605H14.6068H14.6055Z" fill="#BF642E"/>
<path d="M33.3932 19.8H14.6068C13.8319 19.8 13.2 19.2621 13.2 18.6C13.2 17.9379 13.8306 17.4 14.6068 17.4H33.3932C34.1681 17.4 34.8 17.9379 34.8 18.6C34.8 19.2621 34.1694 19.8 33.3932 19.8ZM14.6055 18.3604C14.4534 18.3604 14.3247 18.4702 14.3247 18.6C14.3247 18.7298 14.4534 18.8396 14.6055 18.8396H33.3932C33.5453 18.8396 33.674 18.7298 33.674 18.6C33.674 18.4702 33.5453 18.3604 33.3932 18.3604H14.6068H14.6055Z" fill="#BF642E"/>
<path d="M33.3932 36.6H14.6068C13.8319 36.6 13.2 36.0621 13.2 35.4C13.2 34.7379 13.8306 34.2 14.6068 34.2H33.3932C34.1681 34.2 34.8 34.7379 34.8 35.4C34.8 36.0621 34.1694 36.6 33.3932 36.6ZM14.6055 35.1604C14.4534 35.1604 14.3247 35.2702 14.3247 35.4C14.3247 35.5298 14.4534 35.6396 14.6055 35.6396H33.3932C33.5453 35.6396 33.674 35.5298 33.674 35.4C33.674 35.2702 33.5453 35.1604 33.3932 35.1604H14.6068H14.6055Z" fill="#BF642E"/>
<path d="M33.3932 28.2H14.6068C13.8319 28.2 13.2 27.6621 13.2 27C13.2 26.3379 13.8306 25.8 14.6068 25.8H33.3932C34.1681 25.8 34.8 26.3379 34.8 27C34.8 27.6621 34.1694 28.2 33.3932 28.2ZM14.6055 26.7604C14.4534 26.7604 14.3247 26.8702 14.3247 27C14.3247 27.1298 14.4534 27.2396 14.6055 27.2396H33.3932C33.5453 27.2396 33.674 27.1298 33.674 27C33.674 26.8702 33.5453 26.7604 33.3932 26.7604H14.6068H14.6055Z" fill="#BF642E"/>
<path d="M33.3932 32.4H14.6068C13.8319 32.4 13.2 31.8621 13.2 31.2C13.2 30.5379 13.8306 30 14.6068 30H33.3932C34.1681 30 34.8 30.5379 34.8 31.2C34.8 31.8621 34.1694 32.4 33.3932 32.4ZM14.6055 30.9604C14.4534 30.9604 14.3247 31.0702 14.3247 31.2C14.3247 31.3298 14.4534 31.4396 14.6055 31.4396H33.3932C33.5453 31.4396 33.674 31.3298 33.674 31.2C33.674 31.0702 33.5453 30.9604 33.3932 30.9604H14.6068H14.6055Z" fill="#BF642E"/>
<path d="M37.0681 9.28651H29.4548V10.418H37.0681C37.5068 10.418 37.864 10.7738 37.864 11.2107V41.4308C37.864 41.8677 37.5068 42.2235 37.0681 42.2235H10.9319C10.4932 42.2235 10.136 41.8677 10.136 41.4308V11.2107C10.136 10.7738 10.4932 10.418 10.9319 10.418H18.5452V9.28651H10.9319C9.86679 9.28651 9 10.1499 9 11.2107V41.4308C9 42.4916 9.86679 43.355 10.9319 43.355H37.0681C38.1332 43.355 39 42.4916 39 41.4308V11.2107C39 10.1499 38.1332 9.28651 37.0681 9.28651Z" fill="#BF642E"/>
<path d="M28.0903 13.3613H19.9084C18.9063 13.3613 18.0908 12.549 18.0908 11.5509V8.49381C18.0908 7.49572 18.9063 6.68338 19.9084 6.68338H21.5028C21.7378 5.51131 22.7635 4.64665 24.0072 4.64665C25.251 4.64665 26.2767 5.51131 26.5117 6.68338H28.0903C29.0924 6.68338 29.908 7.49572 29.908 8.49381V11.5496C29.908 12.5477 29.0924 13.36 28.0903 13.36V13.3613ZM19.9084 7.5886C19.4067 7.5886 18.9996 7.99542 18.9996 8.49381V11.5496C18.9996 12.0493 19.408 12.4548 19.9084 12.4548H28.0903C28.592 12.4548 28.9991 12.048 28.9991 11.5496V8.49381C28.9991 7.99411 28.5907 7.5886 28.0903 7.5886H25.6646L25.6528 7.14776C25.6292 6.25171 24.9056 5.55056 24.0072 5.55056C23.1089 5.55056 22.3866 6.25171 22.3617 7.14776L22.3498 7.5886H19.9071H19.9084Z" fill="#BF642E"/>
</svg>
