<svg width="48" height="48" viewBox="0 0 48 48" fill="none" xmlns="http://www.w3.org/2000/svg">
<path d="M15.072 44.0089C14.5962 43.8861 14.1078 43.7972 13.6461 43.6348C9.39531 42.1341 7.93413 36.912 10.8099 33.4419C13.3468 30.3812 15.9177 27.3501 18.4631 24.2965C18.5986 24.1341 18.6974 23.8856 18.7002 23.6753C18.7214 22.2805 18.7059 20.8856 18.7158 19.4908C18.7172 19.2565 18.6551 19.1238 18.4362 19.0024C17.7219 18.6042 17.3958 17.8024 17.5948 17.0315C17.7868 16.2889 18.4532 15.7384 19.2593 15.7355C22.4146 15.7228 25.5685 15.7228 28.7238 15.7355C29.5327 15.7384 30.1962 16.2847 30.3897 17.0287C30.5901 17.7967 30.264 18.5972 29.5525 19.0009C29.3407 19.1209 29.2673 19.2494 29.2701 19.488C29.2814 20.8828 29.2659 22.2776 29.2857 23.6725C29.2885 23.8828 29.3873 24.1313 29.5228 24.2936C32.0428 27.3162 34.577 30.3289 37.1054 33.3459C38.2461 34.7068 38.7558 36.2739 38.64 38.0499C38.448 40.9765 36.1144 43.5078 33.209 43.9285C33.1087 43.9426 33.0127 43.9793 32.9139 44.0061H15.072V44.0089ZM19.8861 19.2706C19.8861 19.4569 19.8861 19.6094 19.8861 19.7619C19.8861 21.1567 19.8791 22.5515 19.8918 23.9464C19.8946 24.2936 19.7944 24.5689 19.5685 24.8315C18.7045 25.8409 17.8546 26.8631 17.0005 27.8823C15.2005 30.0296 13.3595 32.1445 11.6174 34.3383C10.2875 36.0141 10.1068 37.9327 11.04 39.8527C11.9732 41.7713 13.5897 42.8075 15.7313 42.8216C21.2457 42.8569 26.76 42.8442 32.2744 42.8174C32.8857 42.8146 33.5266 42.6819 34.0998 42.4659C37.512 41.1783 38.5807 36.9798 36.2217 34.1294C33.6607 31.0376 31.0701 27.9727 28.481 24.9049C28.2113 24.5845 28.0885 24.264 28.0941 23.8461C28.1139 22.4781 28.1012 21.1087 28.1012 19.7407V19.2692H19.8861V19.2706ZM24.0113 16.9031C22.553 16.9031 21.0946 16.9031 19.6348 16.9031C18.9854 16.9031 18.72 17.0725 18.7214 17.4861C18.7228 17.8984 18.9981 18.0762 19.6377 18.0762C22.5417 18.0762 25.4457 18.0762 28.3511 18.0748C28.5191 18.0748 28.6941 18.0748 28.8551 18.0325C29.1445 17.9548 29.2786 17.7388 29.2617 17.4438C29.2447 17.1671 29.0951 16.9793 28.8155 16.9256C28.6758 16.8988 28.5304 16.9031 28.3878 16.9031C26.9294 16.9016 25.4711 16.9031 24.0113 16.9031Z" fill="#222D17"/>
<path d="M23.9915 10.5092C24.0931 10.2762 24.1553 10.1224 24.2273 9.97271C26.0174 6.20894 28.9863 4.18871 33.1553 3.95718C33.7835 3.92188 33.9769 4.14071 33.9614 4.76329C33.8131 10.3948 29.1247 14.7558 23.4903 14.5031C18.775 14.2927 14.7317 10.5967 14.1261 5.93788C14.0739 5.53835 14.0456 5.13459 14.0301 4.73082C14.0061 4.15482 14.2164 3.92612 14.7868 3.95435C18.9755 4.16612 21.9543 6.19059 23.76 9.96282C23.832 10.1139 23.8927 10.2706 23.9943 10.5078L23.9915 10.5092ZM23.3421 13.3002C23.2023 8.92659 19.2649 5.28282 15.2569 5.19388C15.3473 8.90965 18.5929 12.9769 23.3421 13.3002ZM32.7346 5.16565C27.7863 5.48188 24.6282 9.86965 24.6663 13.2946C29.2433 13.0108 32.6117 9.06777 32.7346 5.16565Z" fill="#222D17"/>
<path d="M23.9718 41.6612C21.2471 41.6612 18.521 41.6711 15.7963 41.6583C13.7915 41.6485 12.1454 40.3031 11.7558 38.3492C11.5285 37.2113 11.7247 36.1285 12.4306 35.1953C13.0348 34.3948 13.6998 33.6409 14.3506 32.8772C14.6005 32.5835 14.9647 32.5581 15.2146 32.7812C15.4504 32.9915 15.4744 33.3402 15.2414 33.624C14.705 34.2791 14.1572 34.9256 13.6108 35.5736C12.7934 36.5435 12.5986 37.6292 13.1266 38.7769C13.656 39.9275 14.6174 40.4838 15.881 40.4852C21.2923 40.4894 26.7035 40.4894 32.1134 40.4852C33.3784 40.4852 34.3355 39.9247 34.8635 38.7713C35.3831 37.6376 35.1995 36.5576 34.3977 35.5976C32.8927 33.7976 31.3793 32.0047 29.8772 30.2019C29.7148 30.0071 29.5511 29.9167 29.2871 29.9167C25.7534 29.9266 22.2198 29.9252 18.6861 29.9167C18.4391 29.9167 18.2781 29.9873 18.1257 30.1793C17.7191 30.6889 17.2955 31.1845 16.872 31.6786C16.5713 32.0287 16.2353 32.0894 15.9572 31.8579C15.6847 31.6306 15.6875 31.2706 15.9741 30.9261C16.4824 30.3148 17.0005 29.7106 17.5031 29.0951C17.6993 28.8551 17.9224 28.7421 18.2414 28.7421C22.0744 28.7492 25.9087 28.7492 29.7417 28.7421C30.0593 28.7421 30.2824 28.8565 30.4814 29.0936C32.1021 31.0348 33.7454 32.9576 35.3492 34.9129C36.432 36.2315 36.6339 37.728 35.9195 39.2696C35.1967 40.8296 33.9035 41.6329 32.1854 41.6499C29.448 41.6767 26.7092 41.6569 23.9718 41.6569V41.6612Z" fill="#222D17"/>
</svg>
